<svg width="1440" height="1493" viewBox="0 0 1440 1493" fill="none" xmlns="http://www.w3.org/2000/svg">
<path d="M0 0H1440V1492.5C1440 1492.5 1380.5 1490.5 1380.5 1235.5C1380.5 1103.57 1316.03 1046.5 1268.53 1046.5C1221.03 1046.5 1182.03 1092 1139.03 1092C1096.03 1092 1069.53 1064.59 1054.03 1055.5C1038.53 1046.41 1004.03 1018 966.031 1018C928.031 1018 898.031 1037 883.031 1047.5C868.031 1058 852.236 1069 822.031 1069C791.826 1069 777.531 1056.46 766.531 1047.5C755.531 1038.54 744.531 1030 732.031 1024C719.531 1018 706.032 1016 692.531 1016C638.531 1016 669.031 1127 621.531 1127C574.031 1127 615.031 963.988 508.031 1053.5C401.031 1143.01 378.032 1043 284.031 1025C190.031 1007 102 1168 0 1179V0Z" fill="url(#paint0_linear)"/>
<defs>
<linearGradient id="paint0_linear" x1="720.016" y1="-230" x2="720.016" y2="1503.5" gradientUnits="userSpaceOnUse">
<stop stop-color="#302020"/>
<stop offset="0.197917" stop-color="#302020"/>
<stop offset="0.625" stop-color="#472E2E"/>
<stop offset="1" stop-color="#4D3131"/>
</linearGradient>
</defs>
</svg>
