<svg width="1440" height="275" viewBox="0 0 1440 275" fill="none" xmlns="http://www.w3.org/2000/svg">
<path d="M0 -0.000244141H1440V161C1440 161 1381.5 416 1381.5 161C1381.5 29.0662 1235.5 161 1188 161C1140.5 161 1111 161 1068 161C1025 161 999.5 170.093 984 161C968.5 151.906 948 161 910 161C872 161 856 150.5 841 161C826 171.5 806.205 161 776 161C745.795 161 744 169.963 733 161C722 152.037 698.5 167 686 161C673.5 155 650 161 636.5 161C582.5 161 607.5 161 560 161C512.5 161 551 71.488 444 161C337 250.511 336 179 242 161C148 143 102 150 0 161V-0.000244141Z" fill="url(#paint0_linear)"/>
<defs>
<linearGradient id="paint0_linear" x1="720.016" y1="-230" x2="720.016" y2="1503.5" gradientUnits="userSpaceOnUse">
<stop stop-color="#302020"/>
<stop offset="0.197917" stop-color="#302020"/>
<stop offset="0.625" stop-color="#472E2E"/>
<stop offset="1" stop-color="#4D3131"/>
</linearGradient>
</defs>
</svg>
