<svg width="1440" height="1734" viewBox="0 0 1440 1734" fill="none" xmlns="http://www.w3.org/2000/svg">
<path d="M-46.4689 16L1458.03 0L1504.03 1733.5C1504.03 1733.5 1398.06 1722.5 1398.06 1467.5C1398.06 1335.57 1316.03 1276.5 1268.53 1276.5C1221.03 1276.5 1182.03 1322 1139.03 1322C1096.03 1322 1069.53 1294.59 1054.03 1285.5C1038.53 1276.41 1004.03 1248 966.031 1248C928.031 1248 898.031 1267 883.031 1277.5C868.031 1288 852.236 1299 822.031 1299C791.826 1299 777.531 1286.46 766.531 1277.5C755.531 1268.54 744.531 1260 732.031 1254C719.531 1248 706.031 1246 692.531 1246C638.531 1246 669.031 1357 621.531 1357C574.031 1357 615.031 1193.99 508.031 1283.5C401.031 1373.01 378.032 1273 284.032 1255C190.031 1237 97.5314 1397.5 -4.46884 1408.5C-106.469 1419.5 -46.4689 16 -46.4689 16Z" fill="url(#paint0_linear)"/>
<defs>
<linearGradient id="paint0_linear" x1="720.016" y1="0" x2="720.016" y2="1733.5" gradientUnits="userSpaceOnUse">
<stop stop-color="#302020"/>
<stop offset="0.197917" stop-color="#302020"/>
<stop offset="0.625" stop-color="#472E2E"/>
<stop offset="1" stop-color="#4D3131"/>
</linearGradient>
</defs>
</svg>
