<svg width="88" height="88" viewBox="0 0 88 88" fill="none" xmlns="http://www.w3.org/2000/svg">
<g clip-path="url(#clip0)" filter="url(#filter0_d)">
<path d="M62.3566 47.6897L62.3266 47.9397C54.9966 44.2864 54.23 43.7997 53.2833 45.2197C52.6266 46.2031 50.7133 48.4331 50.1366 49.0931C49.5533 49.7431 48.9733 49.7931 47.9833 49.3431C46.9833 48.8431 43.7733 47.7931 39.9733 44.3931C37.0133 41.7431 35.0266 38.4931 34.44 37.4931C33.4633 35.8064 35.5066 35.5664 37.3666 32.0464C37.7 31.3464 37.53 30.7964 37.2833 30.2998C37.0333 29.7998 35.0433 24.8998 34.21 22.9464C33.41 20.9998 32.5866 21.2464 31.97 21.2464C30.05 21.0798 28.6466 21.1064 27.41 22.3931C22.03 28.3064 23.3866 34.4064 27.99 40.8931C37.0366 52.7331 41.8566 54.9131 50.67 57.9397C53.05 58.6964 55.22 58.5897 56.9366 58.3431C58.85 58.0397 62.8266 55.9397 63.6566 53.5897C64.5066 51.2397 64.5066 49.2898 64.2566 48.8398C64.01 48.3898 63.3566 48.1397 62.3566 47.6897Z" fill="#EFEFEF"/>
<path d="M72.4 11.4966C46.77 -13.28 4.35333 4.68997 4.33667 39.6433C4.33667 46.63 6.16667 53.4433 9.65333 59.46L4 80L25.1167 74.4933C51.4667 88.7267 83.9867 69.8267 84 39.6633C84 29.0766 79.8667 19.1133 72.35 11.6266L72.4 11.4966ZM77.34 39.5533C77.32 64.9967 49.39 80.8867 27.3 67.9L26.1 67.1867L13.6 70.4367L16.95 58.2867L16.1533 57.0367C2.40667 35.1533 18.2 6.55331 44.24 6.55331C53.0867 6.55331 61.39 10.0033 67.6433 16.2533C73.8933 22.45 77.34 30.7533 77.34 39.5533Z" fill="#EFEFEF"/>
</g>
<defs>
<filter id="filter0_d" x="0" y="0" width="88" height="88" filterUnits="userSpaceOnUse" color-interpolation-filters="sRGB">
<feFlood flood-opacity="0" result="BackgroundImageFix"/>
<feColorMatrix in="SourceAlpha" type="matrix" values="0 0 0 0 0 0 0 0 0 0 0 0 0 0 0 0 0 0 127 0"/>
<feOffset dy="4"/>
<feGaussianBlur stdDeviation="2"/>
<feColorMatrix type="matrix" values="0 0 0 0 0 0 0 0 0 0 0 0 0 0 0 0 0 0 0.25 0"/>
<feBlend mode="normal" in2="BackgroundImageFix" result="effect1_dropShadow"/>
<feBlend mode="normal" in="SourceGraphic" in2="effect1_dropShadow" result="shape"/>
</filter>
<clipPath id="clip0">
<rect width="80" height="80" fill="white" transform="translate(4)"/>
</clipPath>
</defs>
</svg>
